<svg width="16" height="16" viewBox="0 0 16 16" fill="none" xmlns="http://www.w3.org/2000/svg">
<g id="vuesax/outline/trash">
<g id="trash">
<path id="Vector" d="M14 4.48666C13.9867 4.48666 13.9667 4.48666 13.9467 4.48666C10.42 4.13333 6.9 3.99999 3.41334 4.35333L2.05334 4.48666C1.77334 4.51333 1.52667 4.31333 1.5 4.03333C1.47334 3.75333 1.67334 3.51333 1.94667 3.48666L3.30667 3.35333C6.85334 2.99333 10.4467 3.13333 14.0467 3.48666C14.32 3.51333 14.52 3.75999 14.4933 4.03333C14.4733 4.29333 14.2533 4.48666 14 4.48666Z" fill="#515151"/>
<path id="Vector_2" d="M5.66663 3.81334C5.63997 3.81334 5.6133 3.81334 5.57997 3.80668C5.3133 3.76001 5.12663 3.50001 5.1733 3.23334L5.31997 2.36001C5.42663 1.72001 5.5733 0.833344 7.12663 0.833344H8.8733C10.4333 0.833344 10.58 1.75334 10.68 2.36668L10.8266 3.23334C10.8733 3.50668 10.6866 3.76668 10.42 3.80668C10.1466 3.85334 9.88663 3.66668 9.84663 3.40001L9.69997 2.53334C9.60663 1.95334 9.58663 1.84001 8.87997 1.84001H7.1333C6.42663 1.84001 6.4133 1.93334 6.3133 2.52668L6.15997 3.39334C6.11997 3.64001 5.90663 3.81334 5.66663 3.81334Z" fill="#515151"/>
<path id="Vector_3" d="M10.14 15.1667H5.85997C3.53331 15.1667 3.43997 13.88 3.36664 12.84L2.93331 6.12666C2.91331 5.85332 3.12664 5.61332 3.39997 5.59332C3.67997 5.57999 3.91331 5.78666 3.93331 6.05999L4.36664 12.7733C4.43997 13.7867 4.46664 14.1667 5.85997 14.1667H10.14C11.54 14.1667 11.5666 13.7867 11.6333 12.7733L12.0666 6.05999C12.0866 5.78666 12.3266 5.57999 12.6 5.59332C12.8733 5.61332 13.0866 5.84666 13.0666 6.12666L12.6333 12.84C12.56 13.88 12.4666 15.1667 10.14 15.1667Z" fill="#515151"/>
<path id="Vector_4" d="M9.10666 11.5H6.88666C6.61332 11.5 6.38666 11.2733 6.38666 11C6.38666 10.7267 6.61332 10.5 6.88666 10.5H9.10666C9.37999 10.5 9.60666 10.7267 9.60666 11C9.60666 11.2733 9.37999 11.5 9.10666 11.5Z" fill="#515151"/>
<path id="Vector_5" d="M9.66665 8.83334H6.33331C6.05998 8.83334 5.83331 8.60668 5.83331 8.33334C5.83331 8.06001 6.05998 7.83334 6.33331 7.83334H9.66665C9.93998 7.83334 10.1666 8.06001 10.1666 8.33334C10.1666 8.60668 9.93998 8.83334 9.66665 8.83334Z" fill="#515151"/>
</g>
</g>
</svg>
